<svg xmlns="http://www.w3.org/2000/svg" width="192" height="192" viewBox="0 0 512 512">
  <defs>
    <linearGradient id="sakuraGrad" x1="0%" y1="0%" x2="100%" y2="100%">
      <stop offset="0%" style="stop-color:#ffb7c5;stop-opacity:1" />
      <stop offset="100%" style="stop-color:#e8547a;stop-opacity:1" />
    </linearGradient>
  </defs>
  
  <rect width="512" height="512" rx="100" fill="#fdf8f5"/>
  
  <circle cx="256" cy="256" r="180" fill="#e8547a" opacity="0.05"/>
  
  <g transform="translate(256, 230)">
    <path d="M0,0 C-40,-80 40,-80 0,0" fill="url(#sakuraGrad)" transform="rotate(0) translate(0,-30)"/>
    <path d="M0,0 C-40,-80 40,-80 0,0" fill="url(#sakuraGrad)" transform="rotate(72) translate(0,-30)"/>
    <path d="M0,0 C-40,-80 40,-80 0,0" fill="url(#sakuraGrad)" transform="rotate(144) translate(0,-30)"/>
    <path d="M0,0 C-40,-80 40,-80 0,0" fill="url(#sakuraGrad)" transform="rotate(216) translate(0,-30)"/>
    <path d="M0,0 C-40,-80 40,-80 0,0" fill="url(#sakuraGrad)" transform="rotate(288) translate(0,-30)"/>
    
    <circle r="15" fill="#fbc531"/>
    <circle r="8" fill="#e67e22"/>
  </g>
  
  <text x="256" y="420" font-family="sans-serif" font-size="60" fill="#e8547a" text-anchor="middle" font-weight="900">SAKURA</text>
</svg>